# xmcd
#
# Track frame offsets:
#	150
#	18779
#	31755
#	43683
#	62093
#	88931
#	101048
#	112911
#
# Disc length: 1683 seconds
#
# Revision: 7
# Processed by: cddbd v1.5.2PL0 Copyright (c) Steve Scherf et al.
# Submitted via: EasyCDDAExtractor 15.3.0.1
#
DISCID=5b069108
DTITLE=Ednita Nazario - Navidad - Lo Mejor De Ednita Nazario
DYEAR=1976
DGENRE=Latin
TTITLE0=Blanca Navidad (White Christmas)
TTITLE1=Blue Christmas
TTITLE2=Ilusion (Have Yourself A Merry Little Christmas)
TTITLE3=Cancion (Christmas Song)
TTITLE4=Escucha Mi Cancion (Do You Hear What I Hear)
TTITLE5=Nueva Navidad (Winter Wonderland)
TTITLE6=Sleigh Ride
TTITLE7=Vete Vete
EXTD=
EXTT0=
EXTT1=
EXTT2=
EXTT3=
EXTT4=
EXTT5=
EXTT6=
EXTT7=
PLAYORDER=
